<svg width="162" height="163" viewBox="0 0 162 163" fill="none" xmlns="http://www.w3.org/2000/svg">
<path d="M136.994 22.8738C122.563 8.82437 103.467 0.686298 83.4161 0.0414691C63.3654 -0.60336 43.7932 6.29113 28.5038 19.3848C13.2144 32.4785 3.30025 50.8358 0.688335 70.8887C-1.92358 90.9415 2.95339 111.257 14.3713 127.887C25.7892 144.516 42.9322 156.271 62.4682 160.868C82.0042 165.464 102.537 162.572 120.077 152.755C137.616 142.938 150.908 126.897 157.369 107.75C163.831 88.6029 163.738 66.155 155.776 47.5912L140.034 56.5146C146.193 70.8735 145.032 86.994 140.034 101.804C135.036 116.614 124.755 129.022 111.189 136.615C97.6223 144.208 81.7402 146.445 66.6293 142.89C51.5185 139.335 38.2586 130.242 29.427 117.379C20.5954 104.517 16.8231 88.8029 18.8434 73.2923C20.8637 57.7816 28.5322 43.5825 40.3583 33.4547C52.1845 23.3269 67.3233 17.9941 82.8323 18.4928C98.3412 18.9916 113.112 25.2863 124.274 36.1534L136.994 22.8738Z" fill="#FF6700" fill-opacity="0.12"/>
</svg>
