<svg width="21" height="21" viewBox="0 0 21 21" fill="none" xmlns="http://www.w3.org/2000/svg">
<path d="M2.57103 10.129C2.57103 8.70103 2.92162 7.37803 3.61592 6.16703C4.31022 4.95603 5.25199 3.99703 6.44124 3.29003C7.63049 2.58302 8.92286 2.23302 10.3183 2.23302C11.3632 2.23302 12.3669 2.44302 13.3224 2.85602C14.2779 3.26903 15.096 3.83603 15.7903 4.53603C16.4846 5.23603 17.0345 6.07603 17.4401 7.05603C17.8457 8.03603 18.0519 9.05103 18.0519 10.129C18.0519 11.193 17.8457 12.215 17.4401 13.188C17.0345 14.161 16.4777 15.001 15.7903 15.701C15.1028 16.401 14.2779 16.961 13.3224 17.374C12.3669 17.787 11.3701 17.997 10.3183 17.997C9.26657 17.997 8.25605 17.787 7.30053 17.374C6.345 16.961 5.52009 16.394 4.82579 15.694C4.13149 14.994 3.58842 14.154 3.17596 13.188C2.76351 12.222 2.57103 11.2 2.57103 10.129ZM4.27585 10.129C4.27585 11.788 4.86704 13.23 6.05628 14.455C7.24553 15.666 8.66163 16.268 10.3183 16.268C11.4045 16.268 12.415 15.995 13.3361 15.442C14.2573 14.889 14.9997 14.147 15.5428 13.202C16.0859 12.257 16.3608 11.235 16.3608 10.129C16.3608 9.02303 16.0859 7.99403 15.5428 7.04903C14.9997 6.10403 14.2642 5.35503 13.3361 4.80203C12.4081 4.24903 11.4045 3.97603 10.3183 3.97603C9.2322 3.97603 8.22168 4.24903 7.30053 4.80203C6.37938 5.35503 5.63695 6.10403 5.08701 7.04903C4.53707 7.99403 4.27585 9.02303 4.27585 10.129ZM6.99119 11.592C7.03243 11.438 7.1218 11.319 7.25241 11.235L9.72027 9.77203V5.46703C9.72027 5.30603 9.77527 5.16603 9.88526 5.05403C9.99524 4.94203 10.1327 4.88603 10.2908 4.88603C10.4489 4.88603 10.5864 4.94203 10.6964 5.05403C10.8064 5.16603 10.8614 5.30603 10.8614 5.46703V10.136C10.8614 10.269 10.8202 10.381 10.7445 10.486C10.6689 10.591 10.5727 10.654 10.4558 10.689L7.8161 12.25C7.73361 12.306 7.64424 12.334 7.53425 12.334C7.31428 12.334 7.14929 12.236 7.03931 12.04C6.96912 11.902 6.95196 11.7423 6.99119 11.592Z" fill="black" fill-opacity="0.5"/>
</svg>
