<svg width="99" height="103" viewBox="0 0 99 103" fill="none" xmlns="http://www.w3.org/2000/svg">
<path d="M95.4628 98.1688C99.3533 86.8699 100.116 75.2307 97.2835 63.1765C94.451 51.1223 88.3229 39.6467 79.4665 29.8121C70.61 19.9776 59.3115 12.1019 46.6169 6.91419C33.9223 1.72648 20.2419 -0.605601 6.84219 0.13385C-3.17701 3.13828 -1.84219 17.7278 8.55587 18.8642L9.91008 19.0122C19.8006 18.4664 29.8984 20.1877 39.2685 24.0168C48.6386 27.846 56.9782 33.6591 63.5152 40.9182C70.0523 48.1772 74.5756 56.6475 76.6663 65.5449C78.757 74.4424 79.0259 85.1302 76.1542 93.4701L76.2247 93.965C77.596 103.599 90.1977 106.353 95.4628 98.1688Z" fill="#FF6700"/>
</svg>
