<svg width="42" height="42" viewBox="0 0 42 42" fill="none" xmlns="http://www.w3.org/2000/svg">
<path d="M34.5625 17.5C34.5625 17.1519 34.4242 16.8181 34.1781 16.5719C33.932 16.3258 33.5981 16.1875 33.25 16.1875C32.9019 16.1875 32.5681 16.3258 32.3219 16.5719C32.0758 16.8181 31.9375 17.1519 31.9375 17.5H34.5625ZM10.0625 17.5C10.0625 17.1519 9.92424 16.8181 9.6781 16.5719C9.43196 16.3258 9.09812 16.1875 8.75002 16.1875C8.40193 16.1875 8.06809 16.3258 7.82195 16.5719C7.57581 16.8181 7.43753 17.1519 7.43753 17.5H10.0625ZM35.8225 21.9275C35.9427 22.0565 36.0876 22.1599 36.2486 22.2316C36.4096 22.3034 36.5834 22.3419 36.7596 22.345C36.9358 22.3482 37.1109 22.3157 37.2743 22.2497C37.4378 22.1837 37.5862 22.0855 37.7108 21.9608C37.8355 21.8362 37.9337 21.6877 37.9997 21.5243C38.0658 21.3609 38.0982 21.1858 38.0951 21.0096C38.0919 20.8334 38.0534 20.6596 37.9816 20.4986C37.9099 20.3376 37.8065 20.1927 37.6775 20.0725L35.8225 21.9275ZM21 5.25L21.9275 4.3225C21.6814 4.07672 21.3478 3.93866 21 3.93866C20.6522 3.93866 20.3186 4.07672 20.0725 4.3225L21 5.25ZM4.32252 20.0725C4.19357 20.1927 4.09014 20.3376 4.01841 20.4986C3.94667 20.6596 3.9081 20.8334 3.90499 21.0096C3.90188 21.1858 3.9343 21.3609 4.00031 21.5243C4.06632 21.6877 4.16457 21.8362 4.28921 21.9608C4.41384 22.0855 4.5623 22.1837 4.72573 22.2497C4.88916 22.3157 5.06421 22.3482 5.24044 22.345C5.41667 22.3419 5.59047 22.3034 5.75147 22.2316C5.91247 22.1599 6.05737 22.0565 6.17752 21.9275L4.32252 20.0725ZM12.25 38.0625H29.75V35.4375H12.25V38.0625ZM34.5625 33.25V17.5H31.9375V33.25H34.5625ZM10.0625 33.25V17.5H7.43753V33.25H10.0625ZM37.6775 20.0725L21.9275 4.3225L20.0725 6.1775L35.8225 21.9275L37.6775 20.0725ZM20.0725 4.3225L4.32252 20.0725L6.17752 21.9275L21.9275 6.1775L20.0725 4.3225ZM29.75 38.0625C31.0264 38.0625 32.2505 37.5555 33.153 36.653C34.0555 35.7504 34.5625 34.5264 34.5625 33.25H31.9375C31.9375 34.4575 30.9575 35.4375 29.75 35.4375V38.0625ZM12.25 35.4375C11.0425 35.4375 10.0625 34.4575 10.0625 33.25H7.43753C7.43753 34.5264 7.94455 35.7504 8.84707 36.653C9.74959 37.5555 10.9737 38.0625 12.25 38.0625V35.4375Z" fill="#379FFF"/>
</svg>
