<svg width="14" height="14" viewBox="0 0 14 14" fill="none" xmlns="http://www.w3.org/2000/svg">
<path d="M0 7.01242C0 5.74422 0.317051 4.56926 0.944936 3.49378C1.57282 2.41829 2.42451 1.5666 3.49999 0.938719C4.57548 0.310834 5.74422 0 7.0062 0C7.95114 0 8.85878 0.186501 9.72289 0.553285C10.587 0.920069 11.3268 1.42362 11.9547 2.04529C12.5826 2.66696 13.0799 3.41296 13.4467 4.2833C13.8135 5.15363 14 6.05505 14 7.01242C14 7.95736 13.8135 8.86499 13.4467 9.72911C13.0799 10.5932 12.5764 11.3392 11.9547 11.9609C11.333 12.5826 10.587 13.0799 9.72289 13.4467C8.85878 13.8135 7.95736 14 7.0062 14C6.05505 14 5.1412 13.8135 4.27708 13.4467C3.41296 13.0799 2.66696 12.5764 2.03907 11.9547C1.41119 11.333 0.920069 10.587 0.547068 9.72911C0.174067 8.87121 0 7.96357 0 7.01242ZM1.54174 7.01242C1.54174 8.48578 2.07637 9.76641 3.15186 10.8543C4.22735 11.9298 5.50798 12.4645 7.0062 12.4645C7.98844 12.4645 8.90229 12.222 9.73533 11.7309C10.5684 11.2398 11.2398 10.5808 11.7309 9.74155C12.222 8.90229 12.4707 7.99466 12.4707 7.01242C12.4707 6.03019 12.222 5.11633 11.7309 4.27708C11.2398 3.43783 10.5746 2.77264 9.73533 2.28152C8.89608 1.79041 7.98844 1.54795 7.0062 1.54795C6.02397 1.54795 5.11011 1.79041 4.27708 2.28152C3.44404 2.77264 2.77264 3.43783 2.27531 4.27708C1.77797 5.11633 1.54174 6.03019 1.54174 7.01242ZM3.99733 8.31171C4.03463 8.17494 4.11545 8.06926 4.23356 7.99466L6.46535 6.69537V2.87211C6.46535 2.72912 6.51509 2.60479 6.61455 2.50532C6.71402 2.40586 6.83835 2.35612 6.98134 2.35612C7.12432 2.35612 7.24865 2.40586 7.34812 2.50532C7.44759 2.60479 7.49732 2.72912 7.49732 2.87211V7.01864C7.49732 7.13675 7.46002 7.23622 7.39164 7.32947C7.32326 7.42272 7.23622 7.47867 7.13054 7.50976L4.74333 8.89608C4.66873 8.94581 4.58791 8.97068 4.48845 8.97068C4.28951 8.97068 4.14031 8.88364 4.04085 8.70958C3.97737 8.58698 3.96186 8.44513 3.99733 8.31171Z" fill="black" fill-opacity="0.5"/>
</svg>
