<svg width="175" height="231" viewBox="0 0 175 231" fill="none" xmlns="http://www.w3.org/2000/svg">
<path d="M5.73551 218.411C21.5147 226.405 38.9232 230.706 56.6303 230.985C74.3375 231.265 91.8746 227.516 107.901 220.024C123.927 212.532 138.019 201.497 149.099 187.761C160.178 174.025 167.953 157.952 171.827 140.771C175.702 123.59 175.575 105.756 171.455 88.6313C167.335 71.5067 159.332 55.5453 148.058 41.9671C136.783 28.389 122.535 17.5534 106.403 10.2888C90.2716 3.02418 72.6828 -0.477219 54.9814 0.0522337C42.8401 3.37027 41.8257 20.1983 53.4806 24.9508L55.7629 25.8815C69.504 25.4705 83.1576 28.1885 95.6803 33.8278C108.203 39.4671 119.263 47.8784 128.015 58.4187C136.767 68.959 142.98 81.3494 146.178 94.6426C149.376 107.936 149.475 121.78 146.467 135.117C143.459 148.454 137.424 160.931 128.823 171.594C120.223 182.257 109.284 190.823 96.8428 196.639C84.4019 202.454 70.7885 205.365 57.043 205.148C43.2974 204.931 28.5992 199.75 16.3504 193.545C2.96595 191.034 -5.54308 207.41 4.20547 216.919L5.73551 218.411Z" fill="#379FFF"/>
</svg>
