<svg width="27" height="27" viewBox="0 0 27 27" fill="none" xmlns="http://www.w3.org/2000/svg">
<path d="M4.3125 11.3349C4.59961 11.3349 4.82861 11.4044 4.99951 11.5432C5.17041 11.6821 5.31738 11.8349 5.44043 12.0015C5.56348 12.1682 5.68994 12.3209 5.81982 12.4598C5.94971 12.5986 6.10352 12.6681 6.28125 12.6681C6.60938 12.6681 6.8999 12.6021 7.15283 12.4702C7.40576 12.3383 7.63818 12.1751 7.8501 11.9807C8.06201 11.7863 8.27051 11.571 8.47559 11.3349C8.68066 11.0989 8.89941 10.8871 9.13184 10.6996C9.36426 10.5122 9.61719 10.3455 9.89062 10.1997C10.1641 10.0539 10.4922 9.98792 10.875 10.0018C11.1211 10.0018 11.3604 10.04 11.5928 10.1164C11.8252 10.1928 12.0405 10.3038 12.2388 10.4497L12.249 10.4705C12.3652 10.5538 12.4746 10.6371 12.5771 10.7205C12.6797 10.8038 12.7925 10.8906 12.9155 10.9808C12.9976 10.8975 13.083 10.8246 13.1719 10.7621C13.2607 10.6996 13.3701 10.6684 13.5 10.6684C13.6846 10.6684 13.8384 10.7343 13.9614 10.8663C14.0845 10.9982 14.1494 11.1579 14.1562 11.3454C14.1562 11.4842 14.1118 11.6162 14.0229 11.7411C14.2417 11.88 14.4604 12.0119 14.6792 12.1369C14.8979 12.2619 15.1167 12.3903 15.3354 12.5223C15.4448 12.4042 15.561 12.2897 15.6841 12.1786C15.8071 12.0675 15.9541 12.0085 16.125 12.0015C16.3027 12.0015 16.4565 12.0675 16.5864 12.1994C16.7163 12.3313 16.7812 12.4875 16.7812 12.6681C16.7812 12.7792 16.7607 12.8694 16.7197 12.9389C16.6787 13.0083 16.6274 13.0847 16.5659 13.168C16.7983 13.286 17.0308 13.4006 17.2632 13.5117C17.4956 13.6228 17.7349 13.7304 17.981 13.8346C18.0903 13.7235 18.2031 13.6124 18.3193 13.5013C18.4355 13.3902 18.5791 13.3346 18.75 13.3346C18.9277 13.3346 19.0815 13.4006 19.2114 13.5325C19.3413 13.6645 19.4062 13.8207 19.4062 14.0012C19.4062 14.147 19.3652 14.2755 19.2832 14.3866C19.7139 14.5671 20.1479 14.7337 20.5854 14.8865C21.0229 15.0392 21.4639 15.1989 21.9082 15.3656C22.1406 15.4558 22.3799 15.5704 22.626 15.7093C22.8721 15.8482 23.0977 16.0183 23.3027 16.2196C23.5078 16.421 23.6753 16.6397 23.8052 16.8758C23.9351 17.1118 24 17.3757 24 17.6673V18.0006C24 18.3894 23.9077 18.7401 23.7231 19.0525C23.5386 19.365 23.2993 19.6427 23.0054 19.8857C22.7114 20.1288 22.397 20.344 22.062 20.5315C21.7271 20.7189 21.3989 20.8682 21.0776 20.9793C20.0864 21.3612 19.061 21.6251 18.0015 21.7709C16.9419 21.9167 15.8789 21.9931 14.8125 22H13.5C13.2129 22 12.9565 21.9653 12.731 21.8958C12.5054 21.8264 12.29 21.75 12.085 21.6667C11.8799 21.5834 11.6851 21.507 11.5005 21.4376C11.3159 21.3682 11.1074 21.3334 10.875 21.3334C10.6904 21.3334 10.5195 21.3543 10.3623 21.3959C10.2051 21.4376 10.041 21.5035 9.87012 21.5938C9.61035 21.7257 9.35059 21.8264 9.09082 21.8958C8.83105 21.9653 8.55078 22 8.25 22H4.96875C4.69531 22 4.43896 21.9479 4.19971 21.8438C3.96045 21.7396 3.75195 21.5973 3.57422 21.4168C3.39648 21.2362 3.25635 21.0245 3.15381 20.7814C3.05127 20.5384 3 20.278 3 20.0003V12.6681C3 12.4806 3.03418 12.307 3.10254 12.1473C3.1709 11.9876 3.26318 11.8488 3.37939 11.7307C3.49561 11.6127 3.63574 11.5155 3.7998 11.4391C3.96387 11.3627 4.13477 11.328 4.3125 11.3349ZM22.6875 17.6673C22.6875 17.5562 22.6431 17.4486 22.5542 17.3445C22.4653 17.2403 22.3525 17.1396 22.2158 17.0424C22.0791 16.9452 21.9458 16.8619 21.8159 16.7925C21.686 16.723 21.5698 16.6675 21.4673 16.6258C20.9341 16.4175 20.4043 16.2196 19.8779 16.0322C19.3516 15.8447 18.8218 15.6398 18.2886 15.4177L17.2427 16.4696C17.1128 16.6015 16.959 16.6675 16.7812 16.6675C16.6035 16.6675 16.4497 16.6015 16.3198 16.4696C16.1899 16.3377 16.125 16.1814 16.125 16.0009C16.125 15.8968 16.1558 15.7926 16.2173 15.6885C16.2788 15.5843 16.3574 15.4802 16.4531 15.376C16.5488 15.2718 16.6411 15.1746 16.73 15.0844C16.8188 14.9941 16.9043 14.9143 16.9863 14.8448C16.7471 14.7337 16.5112 14.6226 16.2788 14.5115C16.0464 14.4005 15.814 14.2824 15.5815 14.1574L14.6177 15.1365C14.4878 15.2684 14.334 15.3343 14.1562 15.3343C13.9785 15.3343 13.8247 15.2684 13.6948 15.1365C13.5649 15.0045 13.5 14.8483 13.5 14.6678C13.5 14.4872 13.5649 14.331 13.6948 14.1991L14.3716 13.5013C14.1528 13.3763 13.9375 13.2478 13.7256 13.1159C13.5137 12.984 13.2983 12.8486 13.0796 12.7097L11.9927 13.8033C11.8628 13.9352 11.709 14.0012 11.5312 14.0012C11.3535 14.0012 11.1997 13.9352 11.0698 13.8033C10.9399 13.6714 10.875 13.5152 10.875 13.3346C10.875 13.1541 10.9399 12.9979 11.0698 12.866L11.9824 11.939C11.8184 11.8071 11.6509 11.6752 11.48 11.5432C11.3091 11.4113 11.1074 11.3419 10.875 11.3349C10.6836 11.3349 10.5024 11.3766 10.3315 11.4599C10.1606 11.5432 10.0103 11.6543 9.88037 11.7932H9.87012C9.59668 12.0709 9.33691 12.3417 9.09082 12.6056C8.84473 12.8694 8.58496 13.1055 8.31152 13.3138C8.03809 13.5221 7.74072 13.6888 7.41943 13.8137C7.09814 13.9387 6.71875 14.0012 6.28125 14.0012C6.0625 14.0012 5.86426 13.97 5.68652 13.9075C5.50879 13.845 5.34814 13.7582 5.20459 13.6471C5.06104 13.536 4.9209 13.4075 4.78418 13.2617C4.64746 13.1159 4.52441 12.9597 4.41504 12.7931C4.37402 12.7375 4.33984 12.6993 4.3125 12.6785V18.0006H22.6875V17.6673ZM8.25 20.6669C8.47559 20.6669 8.68066 20.6322 8.86523 20.5627C9.0498 20.4933 9.24463 20.4169 9.44971 20.3336C9.65479 20.2503 9.8667 20.1739 10.0854 20.1045C10.3042 20.035 10.5674 20.0003 10.875 20.0003C11.1758 20.0003 11.4526 20.035 11.7056 20.1045C11.9585 20.1739 12.2217 20.2746 12.4951 20.4065C12.7344 20.5245 12.9634 20.6009 13.1821 20.6356C13.4009 20.6703 13.6436 20.6877 13.9102 20.6877C14.5049 20.6877 15.1338 20.6738 15.7969 20.646C16.46 20.6183 17.1265 20.5558 17.7964 20.4586C18.4663 20.3614 19.1157 20.226 19.7446 20.0524C20.3735 19.8788 20.9512 19.6392 21.4775 19.3337H4.3125V20.0003C4.3125 20.1808 4.37744 20.3371 4.50732 20.469C4.63721 20.6009 4.79102 20.6669 4.96875 20.6669H8.25Z" fill="black" fill-opacity="0.5"/>
</svg>
