<svg width="20" height="19" viewBox="0 0 20 19" fill="none" xmlns="http://www.w3.org/2000/svg">
<path d="M18.7165 8.25442H4.37986L10.6433 2.14416C11.1439 1.65584 11.1439 0.85449 10.6433 0.36617C10.5246 0.250095 10.3835 0.158006 10.2283 0.0951739C10.073 0.0323415 9.90655 0 9.73845 0C9.57035 0 9.40391 0.0323415 9.24864 0.0951739C9.09337 0.158006 8.95233 0.250095 8.83359 0.36617L0.375351 8.61753C0.256366 8.73337 0.161968 8.87096 0.0975606 9.02243C0.0331529 9.1739 0 9.33628 0 9.50027C0 9.66425 0.0331529 9.82663 0.0975606 9.9781C0.161968 10.1296 0.256366 10.2672 0.375351 10.383L8.83359 18.6344C8.95242 18.7503 9.09349 18.8422 9.24874 18.905C9.404 18.9677 9.5704 19 9.73845 19C9.9065 19 10.0729 18.9677 10.2282 18.905C10.3834 18.8422 10.5245 18.7503 10.6433 18.6344C10.7621 18.5184 10.8564 18.3808 10.9207 18.2294C10.985 18.0779 11.0181 17.9156 11.0181 17.7516C11.0181 17.5877 10.985 17.4254 10.9207 17.2739C10.8564 17.1224 10.7621 16.9848 10.6433 16.8689L4.37986 10.7586H18.7165C19.4224 10.7586 20 10.1952 20 9.50653C20 8.81787 19.4224 8.25442 18.7165 8.25442Z" fill="black"/>
</svg>
