<svg width="27" height="7" viewBox="0 0 27 7" fill="none" xmlns="http://www.w3.org/2000/svg">
<path d="M13.5 7C14.3951 7 15.2535 6.63125 15.8865 5.97487C16.5194 5.3185 16.875 4.42826 16.875 3.5C16.875 2.57174 16.5194 1.6815 15.8865 1.02513C15.2535 0.36875 14.3951 0 13.5 0C12.6049 0 11.7465 0.36875 11.1135 1.02513C10.4806 1.6815 10.125 2.57174 10.125 3.5C10.125 4.42826 10.4806 5.3185 11.1135 5.97487C11.7465 6.63125 12.6049 7 13.5 7ZM3.375 7C4.27011 7 5.12855 6.63125 5.76149 5.97487C6.39442 5.3185 6.75 4.42826 6.75 3.5C6.75 2.57174 6.39442 1.6815 5.76149 1.02513C5.12855 0.36875 4.27011 0 3.375 0C2.47989 0 1.62145 0.36875 0.988514 1.02513C0.355579 1.6815 0 2.57174 0 3.5C0 4.42826 0.355579 5.3185 0.988514 5.97487C1.62145 6.63125 2.47989 7 3.375 7ZM23.625 7C24.5201 7 25.3786 6.63125 26.0115 5.97487C26.6444 5.3185 27 4.42826 27 3.5C27 2.57174 26.6444 1.6815 26.0115 1.02513C25.3786 0.36875 24.5201 0 23.625 0C22.7299 0 21.8715 0.36875 21.2385 1.02513C20.6056 1.6815 20.25 2.57174 20.25 3.5C20.25 4.42826 20.6056 5.3185 21.2385 5.97487C21.8715 6.63125 22.7299 7 23.625 7Z" fill="black"/>
</svg>
