<svg width="35" height="35" viewBox="0 0 35 35" fill="none" xmlns="http://www.w3.org/2000/svg">
<path d="M31.3836 13.8824C31.3836 13.5261 31.2421 13.1844 30.9901 12.9324C30.7381 12.6804 30.3964 12.5389 30.04 12.5389C29.6837 12.5389 29.342 12.6804 29.09 12.9324C28.838 13.1844 28.6965 13.5261 28.6965 13.8824H31.3836ZM6.30354 13.8824C6.30354 13.5261 6.16198 13.1844 5.91001 12.9324C5.65804 12.6804 5.3163 12.5389 4.95996 12.5389C4.60362 12.5389 4.26188 12.6804 4.00991 12.9324C3.75794 13.1844 3.61638 13.5261 3.61638 13.8824H6.30354ZM32.6735 18.4148C32.7965 18.5468 32.9448 18.6526 33.1096 18.7261C33.2744 18.7995 33.4523 18.839 33.6327 18.8422C33.8131 18.8454 33.9923 18.8122 34.1596 18.7446C34.3269 18.677 34.4789 18.5765 34.6065 18.4489C34.7341 18.3213 34.8346 18.1693 34.9022 18.002C34.9698 17.8347 35.003 17.6555 34.9998 17.4751C34.9966 17.2947 34.9571 17.1168 34.8837 16.952C34.8103 16.7872 34.7044 16.6388 34.5724 16.5158L32.6735 18.4148ZM17.5 1.34239L18.4495 0.392933C18.1975 0.141326 17.856 0 17.5 0C17.144 0 16.8025 0.141326 16.5505 0.392933L17.5 1.34239ZM0.42763 16.5158C0.295625 16.6388 0.189748 16.7872 0.116313 16.952C0.0428789 17.1168 0.00339209 17.2947 0.000209098 17.4751C-0.00297389 17.6555 0.0302118 17.8347 0.0977865 18.002C0.165361 18.1693 0.265941 18.3213 0.393524 18.4489C0.521108 18.5765 0.673083 18.677 0.840381 18.7446C1.00768 18.8122 1.18688 18.8454 1.36728 18.8422C1.54768 18.839 1.72559 18.7995 1.89041 18.7261C2.05522 18.6526 2.20355 18.5468 2.32655 18.4148L0.42763 16.5158ZM8.54283 34.9318H26.4572V32.2446H8.54283V34.9318ZM31.3836 30.0053V13.8824H28.6965V30.0053H31.3836ZM6.30354 30.0053V13.8824H3.61638V30.0053H6.30354ZM34.5724 16.5158L18.4495 0.392933L16.5505 2.29185L32.6735 18.4148L34.5724 16.5158ZM16.5505 0.392933L0.42763 16.5158L2.32655 18.4148L18.4495 2.29185L16.5505 0.392933ZM26.4572 34.9318C27.7637 34.9318 29.0168 34.4128 29.9407 33.4889C30.8646 32.565 31.3836 31.3119 31.3836 30.0053H28.6965C28.6965 31.2414 27.6933 32.2446 26.4572 32.2446V34.9318ZM8.54283 32.2446C7.30674 32.2446 6.30354 31.2414 6.30354 30.0053H3.61638C3.61638 31.3119 4.13542 32.565 5.05931 33.4889C5.98319 34.4128 7.23625 34.9318 8.54283 34.9318V32.2446Z" fill="#379FFF"/>
</svg>
