<svg width="21" height="12" viewBox="0 0 21 12" fill="none" xmlns="http://www.w3.org/2000/svg">
<path d="M1.3125 1.33494C1.59961 1.33494 1.82861 1.40438 1.99951 1.54325C2.17041 1.68211 2.31738 1.83487 2.44043 2.00151C2.56348 2.16815 2.68994 2.32091 2.81982 2.45977C2.94971 2.59864 3.10352 2.66808 3.28125 2.66808C3.60938 2.66808 3.8999 2.60211 4.15283 2.47019C4.40576 2.33826 4.63818 2.17509 4.8501 1.98068C5.06201 1.78626 5.27051 1.57102 5.47559 1.33494C5.68066 1.09887 5.89941 0.887094 6.13184 0.699623C6.36426 0.512151 6.61719 0.345509 6.89062 0.199698C7.16406 0.0538868 7.49219 -0.0120755 7.875 0.00181132C8.12109 0.00181132 8.36035 0.04 8.59277 0.116377C8.8252 0.192755 9.04053 0.303849 9.23877 0.44966L9.24902 0.470491C9.36523 0.553811 9.47461 0.637132 9.57715 0.720453C9.67969 0.803774 9.79248 0.890566 9.91553 0.98083C9.99756 0.897509 10.083 0.824604 10.1719 0.762113C10.2607 0.699623 10.3701 0.668377 10.5 0.668377C10.6846 0.668377 10.8384 0.73434 10.9614 0.866264C11.0845 0.998189 11.1494 1.15789 11.1562 1.34536C11.1562 1.48423 11.1118 1.61615 11.0229 1.74113C11.2417 1.88 11.4604 2.01192 11.6792 2.13691C11.8979 2.26189 12.1167 2.39034 12.3354 2.52226C12.4448 2.40423 12.561 2.28966 12.6841 2.17857C12.8071 2.06747 12.9541 2.00845 13.125 2.00151C13.3027 2.00151 13.4565 2.06747 13.5864 2.1994C13.7163 2.33132 13.7812 2.48755 13.7812 2.66808C13.7812 2.77917 13.7607 2.86943 13.7197 2.93887C13.6787 3.0083 13.6274 3.08468 13.5659 3.168C13.7983 3.28604 14.0308 3.4006 14.2632 3.5117C14.4956 3.62279 14.7349 3.73042 14.981 3.83457C15.0903 3.72347 15.2031 3.61238 15.3193 3.50128C15.4355 3.39019 15.5791 3.33464 15.75 3.33464C15.9277 3.33464 16.0815 3.4006 16.2114 3.53253C16.3413 3.66445 16.4062 3.82068 16.4062 4.00121C16.4062 4.14702 16.3652 4.27547 16.2832 4.38657C16.7139 4.56709 17.1479 4.73374 17.5854 4.88649C18.0229 5.03925 18.4639 5.19894 18.9082 5.36558C19.1406 5.45585 19.3799 5.57041 19.626 5.70928C19.8721 5.84815 20.0977 6.01826 20.3027 6.21962C20.5078 6.42098 20.6753 6.6397 20.8052 6.87577C20.9351 7.11185 21 7.3757 21 7.66732V8.0006C21 8.38943 20.9077 8.74008 20.7231 9.05253C20.5386 9.36498 20.2993 9.64272 20.0054 9.88574C19.7114 10.1288 19.397 10.344 19.062 10.5315C18.7271 10.7189 18.3989 10.8682 18.0776 10.9793C17.0864 11.3612 16.061 11.6251 15.0015 11.7709C13.9419 11.9167 12.8789 11.9931 11.8125 12H10.5C10.2129 12 9.95654 11.9653 9.73096 11.8958C9.50537 11.8264 9.29004 11.75 9.08496 11.6667C8.87988 11.5834 8.68506 11.507 8.50049 11.4376C8.31592 11.3682 8.10742 11.3334 7.875 11.3334C7.69043 11.3334 7.51953 11.3543 7.3623 11.3959C7.20508 11.4376 7.04102 11.5035 6.87012 11.5938C6.61035 11.7257 6.35059 11.8264 6.09082 11.8958C5.83105 11.9653 5.55078 12 5.25 12H1.96875C1.69531 12 1.43896 11.9479 1.19971 11.8438C0.960449 11.7396 0.751953 11.5973 0.574219 11.4168C0.396484 11.2362 0.256348 11.0245 0.153809 10.7814C0.0512695 10.5384 0 10.278 0 10.0003V2.66808C0 2.4806 0.0341797 2.30702 0.102539 2.14732C0.170898 1.98762 0.263184 1.84875 0.379395 1.73072C0.495605 1.61268 0.635742 1.51547 0.799805 1.43909C0.963867 1.36272 1.13477 1.328 1.3125 1.33494ZM19.6875 7.66732C19.6875 7.55623 19.6431 7.4486 19.5542 7.34445C19.4653 7.2403 19.3525 7.13962 19.2158 7.04241C19.0791 6.94521 18.9458 6.86189 18.8159 6.79245C18.686 6.72302 18.5698 6.66747 18.4673 6.62581C17.9341 6.41751 17.4043 6.21962 16.8779 6.03215C16.3516 5.84468 15.8218 5.63985 15.2886 5.41766L14.2427 6.46958C14.1128 6.60151 13.959 6.66747 13.7812 6.66747C13.6035 6.66747 13.4497 6.60151 13.3198 6.46958C13.1899 6.33766 13.125 6.18143 13.125 6.00091C13.125 5.89675 13.1558 5.7926 13.2173 5.68845C13.2788 5.5843 13.3574 5.48015 13.4531 5.376C13.5488 5.27185 13.6411 5.17464 13.73 5.08438C13.8188 4.99411 13.9043 4.91426 13.9863 4.84483C13.7471 4.73374 13.5112 4.62264 13.2788 4.51155C13.0464 4.40045 12.814 4.28241 12.5815 4.15743L11.6177 5.13645C11.4878 5.26838 11.334 5.33434 11.1562 5.33434C10.9785 5.33434 10.8247 5.26838 10.6948 5.13645C10.5649 5.00453 10.5 4.8483 10.5 4.66777C10.5 4.48725 10.5649 4.33102 10.6948 4.19909L11.3716 3.50128C11.1528 3.3763 10.9375 3.24785 10.7256 3.11592C10.5137 2.984 10.2983 2.8486 10.0796 2.70974L8.99268 3.80332C8.86279 3.93525 8.70898 4.00121 8.53125 4.00121C8.35352 4.00121 8.19971 3.93525 8.06982 3.80332C7.93994 3.6714 7.875 3.51517 7.875 3.33464C7.875 3.15411 7.93994 2.99789 8.06982 2.86596L8.98242 1.93902C8.81836 1.80709 8.65088 1.67517 8.47998 1.54325C8.30908 1.41132 8.10742 1.34189 7.875 1.33494C7.68359 1.33494 7.50244 1.3766 7.33154 1.45992C7.16064 1.54325 7.01025 1.65434 6.88037 1.79321H6.87012C6.59668 2.07094 6.33691 2.34174 6.09082 2.60558C5.84473 2.86943 5.58496 3.10551 5.31152 3.31381C5.03809 3.52211 4.74072 3.68875 4.41943 3.81374C4.09814 3.93872 3.71875 4.00121 3.28125 4.00121C3.0625 4.00121 2.86426 3.96996 2.68652 3.90747C2.50879 3.84498 2.34814 3.75819 2.20459 3.64709C2.06104 3.536 1.9209 3.40755 1.78418 3.26174C1.64746 3.11592 1.52441 2.9597 1.41504 2.79306C1.37402 2.73751 1.33984 2.69932 1.3125 2.67849V8.0006H19.6875V7.66732ZM5.25 10.6669C5.47559 10.6669 5.68066 10.6322 5.86523 10.5627C6.0498 10.4933 6.24463 10.4169 6.44971 10.3336C6.65479 10.2503 6.8667 10.1739 7.08545 10.1045C7.3042 10.035 7.56738 10.0003 7.875 10.0003C8.17578 10.0003 8.45264 10.035 8.70557 10.1045C8.9585 10.1739 9.22168 10.2746 9.49512 10.4065C9.73438 10.5245 9.96338 10.6009 10.1821 10.6356C10.4009 10.6703 10.6436 10.6877 10.9102 10.6877C11.5049 10.6877 12.1338 10.6738 12.7969 10.646C13.46 10.6183 14.1265 10.5558 14.7964 10.4586C15.4663 10.3614 16.1157 10.226 16.7446 10.0524C17.3735 9.87879 17.9512 9.63925 18.4775 9.33374H1.3125V10.0003C1.3125 10.1808 1.37744 10.3371 1.50732 10.469C1.63721 10.6009 1.79102 10.6669 1.96875 10.6669H5.25Z" fill="black" fill-opacity="0.5"/>
</svg>
