<svg width="46" height="41" viewBox="0 0 46 41" fill="none" xmlns="http://www.w3.org/2000/svg">
<path d="M11.5 28.1875H5.75V35.875H11.5V28.1875ZM25.875 17.9375H20.125V35.875H25.875V17.9375ZM40.25 5.125V35.875H34.5V5.125H40.25ZM34.5 2.5625C33.7375 2.5625 33.0062 2.83248 32.4671 3.31304C31.9279 3.7936 31.625 4.44538 31.625 5.125V35.875C31.625 36.5546 31.9279 37.2064 32.4671 37.687C33.0062 38.1675 33.7375 38.4375 34.5 38.4375H40.25C41.0125 38.4375 41.7438 38.1675 42.2829 37.687C42.8221 37.2064 43.125 36.5546 43.125 35.875V5.125C43.125 4.44538 42.8221 3.7936 42.2829 3.31304C41.7438 2.83248 41.0125 2.5625 40.25 2.5625H34.5ZM17.25 17.9375C17.25 17.2579 17.5529 16.6061 18.0921 16.1255C18.6312 15.645 19.3625 15.375 20.125 15.375H25.875C26.6375 15.375 27.3688 15.645 27.9079 16.1255C28.4471 16.6061 28.75 17.2579 28.75 17.9375V35.875C28.75 36.5546 28.4471 37.2064 27.9079 37.687C27.3688 38.1675 26.6375 38.4375 25.875 38.4375H20.125C19.3625 38.4375 18.6312 38.1675 18.0921 37.687C17.5529 37.2064 17.25 36.5546 17.25 35.875V17.9375ZM2.875 28.1875C2.875 27.5079 3.1779 26.8561 3.71707 26.3755C4.25623 25.895 4.9875 25.625 5.75 25.625H11.5C12.2625 25.625 12.9938 25.895 13.5329 26.3755C14.0721 26.8561 14.375 27.5079 14.375 28.1875V35.875C14.375 36.5546 14.0721 37.2064 13.5329 37.687C12.9938 38.1675 12.2625 38.4375 11.5 38.4375H5.75C4.9875 38.4375 4.25623 38.1675 3.71707 37.687C3.1779 37.2064 2.875 36.5546 2.875 35.875V28.1875Z" fill="black" fill-opacity="0.36"/>
</svg>
