<svg width="14" height="17" viewBox="0 0 14 17" fill="none" xmlns="http://www.w3.org/2000/svg">
<path d="M14 8.27313C14.0005 8.48919 13.9451 8.70172 13.8392 8.89003C13.7333 9.07835 13.5804 9.23605 13.3955 9.34778L1.93455 16.3589C1.74132 16.4772 1.52001 16.5418 1.29347 16.546C1.06693 16.5502 0.843385 16.4939 0.645909 16.3828C0.450315 16.2734 0.287379 16.1139 0.173858 15.9207C0.0603364 15.7275 0.000326819 15.5076 0 15.2835V1.26278C0.000326819 1.03869 0.0603364 0.818732 0.173858 0.625522C0.287379 0.432312 0.450315 0.272826 0.645909 0.163465C0.843385 0.0523788 1.06693 -0.0039769 1.29347 0.00021823C1.52001 0.00441336 1.74132 0.0690074 1.93455 0.187329L13.3955 7.19847C13.5804 7.31021 13.7333 7.4679 13.8392 7.65622C13.9451 7.84453 14.0005 8.05706 14 8.27313Z" fill="white"/>
</svg>
