<svg width="42" height="42" viewBox="0 0 42 42" fill="none" xmlns="http://www.w3.org/2000/svg">
<path d="M34.5625 17.4999C34.5625 17.1518 34.4242 16.818 34.1781 16.5719C33.932 16.3257 33.5981 16.1874 33.25 16.1874C32.9019 16.1874 32.5681 16.3257 32.3219 16.5719C32.0758 16.818 31.9375 17.1518 31.9375 17.4999H34.5625ZM10.0625 17.4999C10.0625 17.1518 9.92424 16.818 9.6781 16.5719C9.43196 16.3257 9.09812 16.1874 8.75002 16.1874C8.40193 16.1874 8.06809 16.3257 7.82195 16.5719C7.57581 16.818 7.43753 17.1518 7.43753 17.4999H10.0625ZM35.8225 21.9274C35.9427 22.0564 36.0876 22.1598 36.2486 22.2316C36.4096 22.3033 36.5834 22.3419 36.7596 22.345C36.9358 22.3481 37.1109 22.3157 37.2743 22.2497C37.4378 22.1836 37.5862 22.0854 37.7108 21.9608C37.8355 21.8361 37.9337 21.6877 37.9997 21.5242C38.0658 21.3608 38.0982 21.1858 38.0951 21.0095C38.0919 20.8333 38.0534 20.6595 37.9816 20.4985C37.9099 20.3375 37.8065 20.1926 37.6775 20.0724L35.8225 21.9274ZM21 5.24994L21.9275 4.32244C21.6814 4.07666 21.3478 3.9386 21 3.9386C20.6522 3.9386 20.3186 4.07666 20.0725 4.32244L21 5.24994ZM4.32252 20.0724C4.19357 20.1926 4.09014 20.3375 4.01841 20.4985C3.94667 20.6595 3.9081 20.8333 3.90499 21.0095C3.90188 21.1858 3.9343 21.3608 4.00031 21.5242C4.06632 21.6877 4.16457 21.8361 4.28921 21.9608C4.41384 22.0854 4.5623 22.1836 4.72573 22.2497C4.88916 22.3157 5.06421 22.3481 5.24044 22.345C5.41667 22.3419 5.59047 22.3033 5.75147 22.2316C5.91247 22.1598 6.05737 22.0564 6.17752 21.9274L4.32252 20.0724ZM12.25 38.0624H29.75V35.4374H12.25V38.0624ZM34.5625 33.2499V17.4999H31.9375V33.2499H34.5625ZM10.0625 33.2499V17.4999H7.43753V33.2499H10.0625ZM37.6775 20.0724L21.9275 4.32244L20.0725 6.17744L35.8225 21.9274L37.6775 20.0724ZM20.0725 4.32244L4.32252 20.0724L6.17752 21.9274L21.9275 6.17744L20.0725 4.32244ZM29.75 38.0624C31.0264 38.0624 32.2505 37.5554 33.153 36.6529C34.0555 35.7504 34.5625 34.5263 34.5625 33.2499H31.9375C31.9375 34.4574 30.9575 35.4374 29.75 35.4374V38.0624ZM12.25 35.4374C11.0425 35.4374 10.0625 34.4574 10.0625 33.2499H7.43753C7.43753 34.5263 7.94455 35.7504 8.84707 36.6529C9.74959 37.5554 10.9737 38.0624 12.25 38.0624V35.4374Z" fill="black" fill-opacity="0.36"/>
</svg>
