<svg width="145" height="98" viewBox="0 0 145 98" fill="none" xmlns="http://www.w3.org/2000/svg">
<path d="M6.20459 9.14094C21.0984 2.19585 37.5052 -0.874596 53.9025 0.214519C70.2999 1.30363 86.1565 6.51701 100.001 15.3709C113.845 24.2248 125.229 36.4323 133.096 50.8606C140.962 65.2889 145.057 81.4706 144.999 97.9039L116.622 97.8049C116.662 86.1514 113.759 74.6764 108.18 64.4448C102.602 54.2132 94.5294 45.5564 84.7118 39.2778C74.8942 32.9992 63.6498 29.3022 52.0218 28.5299C40.3939 27.7575 28.7593 29.9349 18.1975 34.8599C3.63217 38.8597 -6.41019 20.5143 4.8081 10.4L6.20459 9.14094Z" fill="#379FFF"/>
</svg>
