<svg width="45" height="45" viewBox="0 0 45 45" fill="none" xmlns="http://www.w3.org/2000/svg">
<path d="M23.9239 2.5418L28.6559 13.3348C28.8339 13.741 29.1177 14.0919 29.4776 14.351C29.8375 14.6101 30.2603 14.7679 30.702 14.8078L42.2297 15.8414C43.534 16.0313 44.0543 17.6309 43.1086 18.552L34.425 25.8469C33.7219 26.4375 33.402 27.3656 33.5954 28.2621L36.1196 40.0781C36.3411 41.3754 34.9805 42.3668 33.8133 41.7516L23.7516 35.8594C23.3721 35.6366 22.9401 35.5192 22.5 35.5192C22.06 35.5192 21.628 35.6366 21.2485 35.8594L11.1868 41.748C10.0231 42.3598 8.65903 41.3719 8.88051 40.0746L11.4047 28.2586C11.5946 27.3621 11.2782 26.434 10.575 25.8434L1.88793 18.5555C0.945745 17.6379 1.46606 16.0348 2.76684 15.8449L14.2946 14.8113C14.7362 14.7714 15.1591 14.6136 15.519 14.3545C15.8789 14.0954 16.1627 13.7445 16.3407 13.3383L21.0727 2.54531C21.6598 1.36406 23.3403 1.36406 23.9239 2.5418Z" fill="#F1C93B"/>
<path d="M23.5793 13.9816L22.7777 6.0293C22.7461 5.58633 22.6547 4.82695 23.3648 4.82695C23.9273 4.82695 24.2332 5.99766 24.2332 5.99766L26.6379 12.382C27.5449 14.8113 27.1723 15.6445 26.2969 16.1367C25.2914 16.6992 23.8078 16.2598 23.5793 13.9816Z" fill="white"/>
<path d="M33.4969 25.1402L40.3945 19.7578C40.7355 19.473 41.3508 19.0195 40.8586 18.5027C40.4683 18.0949 39.4136 18.682 39.4136 18.682L33.3773 21.041C31.5773 21.6633 30.382 22.5844 30.2765 23.7445C30.1394 25.2914 31.5281 26.4832 33.4969 25.1402Z" fill="#EDAF00"/>
</svg>
