<svg width="21" height="21" viewBox="0 0 21 21" fill="none" xmlns="http://www.w3.org/2000/svg">
<path d="M19.6875 10.5C19.6881 10.7228 19.6309 10.942 19.5217 11.1362C19.4124 11.3304 19.2548 11.493 19.0641 11.6082L7.24502 18.8385C7.04575 18.9605 6.81752 19.0271 6.58391 19.0314C6.35029 19.0358 6.11976 18.9777 5.91611 18.8631C5.7144 18.7503 5.54638 18.5858 5.42931 18.3866C5.31224 18.1874 5.25035 17.9605 5.25002 17.7294V3.27059C5.25035 3.03949 5.31224 2.81266 5.42931 2.61341C5.54638 2.41416 5.7144 2.24969 5.91611 2.13692C6.11976 2.02236 6.35029 1.96424 6.58391 1.96857C6.81752 1.97289 7.04575 2.03951 7.24502 2.16153L19.0641 9.39176C19.2548 9.50699 19.4124 9.66962 19.5217 9.86382C19.6309 10.058 19.6881 10.2772 19.6875 10.5Z" fill="white"/>
</svg>
