<svg width="39" height="42" viewBox="0 0 39 42" fill="none" xmlns="http://www.w3.org/2000/svg">
<path d="M35.4545 0H26.5909C25.6506 0 24.7488 0.368749 24.0839 1.02513C23.419 1.6815 23.0455 2.57174 23.0455 3.5V38.5C23.0455 39.4283 23.419 40.3185 24.0839 40.9749C24.7488 41.6312 25.6506 42 26.5909 42H35.4545C36.3949 42 37.2967 41.6312 37.9616 40.9749C38.6265 40.3185 39 39.4283 39 38.5V3.5C39 2.57174 38.6265 1.6815 37.9616 1.02513C37.2967 0.368749 36.3949 0 35.4545 0ZM35.4545 38.5H26.5909V3.5H35.4545V38.5ZM12.4091 0H3.54545C2.60514 0 1.70334 0.368749 1.03844 1.02513C0.373538 1.6815 0 2.57174 0 3.5V38.5C0 39.4283 0.373538 40.3185 1.03844 40.9749C1.70334 41.6312 2.60514 42 3.54545 42H12.4091C13.3494 42 14.2512 41.6312 14.9161 40.9749C15.581 40.3185 15.9545 39.4283 15.9545 38.5V3.5C15.9545 2.57174 15.581 1.6815 14.9161 1.02513C14.2512 0.368749 13.3494 0 12.4091 0ZM12.4091 38.5H3.54545V3.5H12.4091V38.5Z" fill="black" fill-opacity="0.36"/>
</svg>
