<svg width="43" height="43" viewBox="0 0 43 43" fill="none" xmlns="http://www.w3.org/2000/svg">
<path d="M21.5 12.5417C25.3014 12.5417 28.9471 14.0518 31.6352 16.7398C34.3232 19.4278 35.8333 23.0736 35.8333 26.875C35.8333 30.6764 34.3232 34.3222 31.6352 37.0102C28.9471 39.6982 25.3014 41.2083 21.5 41.2083C17.6985 41.2083 14.0528 39.6982 11.3648 37.0102C8.67674 34.3222 7.16663 30.6764 7.16663 26.875C7.16663 23.0736 8.67674 19.4278 11.3648 16.7398C14.0528 14.0518 17.6985 12.5417 21.5 12.5417ZM21.5 18.8125L19.1314 23.6142L13.8316 24.3846L17.6658 28.1202L16.761 33.3985L21.5 30.9063L26.2389 33.3967L25.3341 28.1202L29.1683 24.3828L23.8685 23.6124L21.5 18.8125ZM23.2916 3.58154L32.25 3.58333V8.95833L29.8079 10.9973C27.7813 9.93467 25.5688 9.27281 23.2916 9.04792V3.58154ZM19.7083 3.58154V9.04613C17.4317 9.27124 15.2199 9.9331 13.1938 10.9955L10.75 8.95833V3.58333L19.7083 3.58154Z" fill="black" fill-opacity="0.29"/>
</svg>
