<svg width="20" height="20" viewBox="0 0 20 20" fill="none" xmlns="http://www.w3.org/2000/svg">
<path fill-rule="evenodd" clip-rule="evenodd" d="M0 10C0 4.477 4.477 0 10 0C15.523 0 20 4.477 20 10C20 15.523 15.523 20 10 20C4.477 20 0 15.523 0 10ZM11.836 5.548C11.9124 5.4383 11.9661 5.31438 11.9938 5.18358C12.0215 5.05278 12.0227 4.91775 11.9973 4.78648C11.9719 4.65521 11.9205 4.53037 11.846 4.41933C11.7715 4.30829 11.6755 4.21331 11.5637 4.14001C11.4519 4.06671 11.3265 4.01658 11.195 3.99258C11.0635 3.96859 10.9285 3.97121 10.798 4.0003C10.6675 4.02938 10.5441 4.08435 10.4352 4.16193C10.3263 4.23952 10.2341 4.33815 10.164 4.452L6.675 9.775C6.18436 10.5082 5.94986 11.383 6.00801 12.2633C6.06615 13.1435 6.41368 13.9799 6.99649 14.6422C7.5793 15.3045 8.36471 15.7555 9.23046 15.925C10.0962 16.0946 10.9937 15.9732 11.7833 15.5798C12.5729 15.1863 13.2103 14.5428 13.5962 13.7495C13.9822 12.9562 14.095 12.0576 13.9172 11.1935C13.7394 10.3294 13.281 9.54832 12.6132 8.97183C11.9454 8.39534 11.1058 8.05578 10.225 8.006L11.836 5.548ZM8 12C8 11.4696 8.21071 10.9609 8.58579 10.5858C8.96086 10.2107 9.46957 10 10 10C10.5304 10 11.0391 10.2107 11.4142 10.5858C11.7893 10.9609 12 11.4696 12 12C12 12.5304 11.7893 13.0391 11.4142 13.4142C11.0391 13.7893 10.5304 14 10 14C9.46957 14 8.96086 13.7893 8.58579 13.4142C8.21071 13.0391 8 12.5304 8 12Z" fill="#FF6700" fill-opacity="0.44"/>
</svg>
