<svg width="41" height="36" viewBox="0 0 41 36" fill="none" xmlns="http://www.w3.org/2000/svg">
<path d="M8.65505 25.7143H2.88502V33.4286H8.65505V25.7143ZM23.0801 15.4286H17.3101V33.4286H23.0801V15.4286ZM37.5052 2.57143V33.4286H31.7352V2.57143H37.5052ZM31.7352 0C30.97 0 30.2362 0.270917 29.6952 0.753154C29.1541 1.23539 28.8502 1.88944 28.8502 2.57143V33.4286C28.8502 34.1106 29.1541 34.7646 29.6952 35.2468C30.2362 35.7291 30.97 36 31.7352 36H37.5052C38.2704 36 39.0042 35.7291 39.5452 35.2468C40.0863 34.7646 40.3902 34.1106 40.3902 33.4286V2.57143C40.3902 1.88944 40.0863 1.23539 39.5452 0.753154C39.0042 0.270917 38.2704 0 37.5052 0H31.7352ZM14.4251 15.4286C14.4251 14.7466 14.729 14.0925 15.2701 13.6103C15.8111 13.1281 16.545 12.8571 17.3101 12.8571H23.0801C23.8453 12.8571 24.5791 13.1281 25.1202 13.6103C25.6612 14.0925 25.9652 14.7466 25.9652 15.4286V33.4286C25.9652 34.1106 25.6612 34.7646 25.1202 35.2468C24.5791 35.7291 23.8453 36 23.0801 36H17.3101C16.545 36 15.8111 35.7291 15.2701 35.2468C14.729 34.7646 14.4251 34.1106 14.4251 33.4286V15.4286ZM0 25.7143C0 25.0323 0.303956 24.3782 0.845002 23.896C1.38605 23.4138 2.11986 23.1429 2.88502 23.1429H8.65505C9.42021 23.1429 10.154 23.4138 10.6951 23.896C11.2361 24.3782 11.5401 25.0323 11.5401 25.7143V33.4286C11.5401 34.1106 11.2361 34.7646 10.6951 35.2468C10.154 35.7291 9.42021 36 8.65505 36H2.88502C2.11986 36 1.38605 35.7291 0.845002 35.2468C0.303956 34.7646 0 34.1106 0 33.4286V25.7143Z" fill="black" fill-opacity="0.36"/>
</svg>
