<svg width="31" height="36" viewBox="0 0 31 36" fill="none" xmlns="http://www.w3.org/2000/svg">
<path d="M9.43478 16.6154C7.64745 16.6154 5.93333 15.886 4.6695 14.5877C3.40566 13.2893 2.69565 11.5284 2.69565 9.69231V4.15385C2.69565 3.78662 2.83765 3.43444 3.09042 3.17478C3.34319 2.91511 3.68601 2.76923 4.04348 2.76923H5.3913C5.74877 2.76923 6.09159 2.62335 6.34436 2.36369C6.59712 2.10402 6.73913 1.75184 6.73913 1.38462C6.73913 1.01739 6.59712 0.66521 6.34436 0.405544C6.09159 0.145879 5.74877 0 5.3913 0H4.04348C2.97108 0 1.94261 0.437636 1.18431 1.21663C0.426008 1.99563 0 3.05218 0 4.15385V9.69231C0.00173252 11.2566 0.37304 12.797 1.08203 14.1813C1.79103 15.5657 2.81652 16.7525 4.07043 17.64C5.27516 18.7311 6.25217 20.0617 6.94249 21.5514C7.63282 23.0411 8.02214 24.6591 8.08695 26.3077C8.08695 28.8783 9.08097 31.3435 10.8503 33.1612C12.6197 34.9789 15.0195 36 17.5217 36C20.024 36 22.4238 34.9789 24.1931 33.1612C25.9625 31.3435 26.9565 28.8783 26.9565 26.3077V24.7292C28.2271 24.3922 29.3343 23.5908 30.0708 22.4751C30.8073 21.3594 31.1224 20.0061 30.957 18.6688C30.7917 17.3315 30.1572 16.1021 29.1726 15.2109C28.1881 14.3198 26.9209 13.8282 25.6087 13.8282C24.2965 13.8282 23.0293 14.3198 22.0447 15.2109C21.0601 16.1021 20.4257 17.3315 20.2604 18.6688C20.095 20.0061 20.4101 21.3594 21.1466 22.4751C21.883 23.5908 22.9903 24.3922 24.2609 24.7292V26.3077C24.2609 28.1438 23.5508 29.9047 22.287 31.203C21.0232 32.5014 19.3091 33.2308 17.5217 33.2308C15.7344 33.2308 14.0203 32.5014 12.7564 31.203C11.4926 29.9047 10.7826 28.1438 10.7826 26.3077C10.8508 24.6571 11.2444 23.0379 11.9394 21.548C12.6344 20.0582 13.6164 18.7287 14.8261 17.64C16.075 16.7495 17.0953 15.5613 17.7995 14.1771C18.5037 12.793 18.8708 11.2541 18.8696 9.69231V4.15385C18.8696 3.05218 18.4436 1.99563 17.6853 1.21663C16.927 0.437636 15.8985 0 14.8261 0H13.4783C13.1208 0 12.778 0.145879 12.5252 0.405544C12.2724 0.66521 12.1304 1.01739 12.1304 1.38462C12.1304 1.75184 12.2724 2.10402 12.5252 2.36369C12.778 2.62335 13.1208 2.76923 13.4783 2.76923H14.8261C15.1835 2.76923 15.5264 2.91511 15.7791 3.17478C16.0319 3.43444 16.1739 3.78662 16.1739 4.15385V9.69231C16.1739 10.6015 15.9996 11.5017 15.6609 12.3417C15.3222 13.1816 14.8258 13.9448 14.2001 14.5877C13.5743 15.2305 12.8314 15.7405 12.0137 16.0884C11.1961 16.4363 10.3198 16.6154 9.43478 16.6154ZM25.6087 22.1538C24.8938 22.1538 24.2081 21.8621 23.7026 21.3428C23.197 20.8234 22.913 20.1191 22.913 19.3846C22.913 18.6502 23.197 17.9458 23.7026 17.4265C24.2081 16.9071 24.8938 16.6154 25.6087 16.6154C26.3236 16.6154 27.0093 16.9071 27.5148 17.4265C28.0203 17.9458 28.3043 18.6502 28.3043 19.3846C28.3043 20.1191 28.0203 20.8234 27.5148 21.3428C27.0093 21.8621 26.3236 22.1538 25.6087 22.1538Z" fill="#379FFF"/>
</svg>
