<svg width="21" height="21" viewBox="0 0 21 21" fill="none" xmlns="http://www.w3.org/2000/svg">
<path d="M2.61796 10.129C2.61796 8.701 2.97496 7.378 3.68196 6.167C4.38896 4.956 5.34796 3.997 6.55896 3.29C7.76996 2.583 9.08596 2.233 10.507 2.233C11.571 2.233 12.593 2.443 13.566 2.856C14.539 3.269 15.372 3.836 16.079 4.536C16.786 5.236 17.346 6.076 17.759 7.056C18.172 8.036 18.382 9.051 18.382 10.129C18.382 11.193 18.172 12.215 17.759 13.188C17.346 14.161 16.779 15.001 16.079 15.701C15.379 16.401 14.539 16.961 13.566 17.374C12.593 17.787 11.578 17.997 10.507 17.997C9.43596 17.997 8.40696 17.787 7.43396 17.374C6.46096 16.961 5.62096 16.394 4.91396 15.694C4.20696 14.994 3.65396 14.154 3.23396 13.188C2.81396 12.222 2.61796 11.2 2.61796 10.129ZM4.35396 10.129C4.35396 11.788 4.95596 13.23 6.16696 14.455C7.37796 15.666 8.81996 16.268 10.507 16.268C11.613 16.268 12.642 15.995 13.58 15.442C14.518 14.889 15.274 14.147 15.827 13.202C16.38 12.257 16.66 11.235 16.66 10.129C16.66 9.023 16.38 7.994 15.827 7.049C15.274 6.104 14.525 5.355 13.58 4.802C12.635 4.249 11.613 3.976 10.507 3.976C9.40096 3.976 8.37196 4.249 7.43396 4.802C6.49596 5.355 5.73996 6.104 5.17996 7.049C4.61996 7.994 4.35396 9.023 4.35396 10.129ZM7.11896 11.592C7.16096 11.438 7.25196 11.319 7.38496 11.235L9.89796 9.772V5.467C9.89796 5.306 9.95396 5.166 10.066 5.054C10.178 4.942 10.318 4.886 10.479 4.886C10.64 4.886 10.78 4.942 10.892 5.054C11.004 5.166 11.06 5.306 11.06 5.467V10.136C11.06 10.269 11.018 10.381 10.941 10.486C10.864 10.591 10.766 10.654 10.647 10.689L7.95896 12.25C7.87496 12.306 7.78396 12.334 7.67196 12.334C7.44796 12.334 7.27996 12.236 7.16796 12.04C7.09649 11.902 7.07902 11.7422 7.11896 11.592Z" fill="black" fill-opacity="0.5"/>
</svg>
